<?xml version="1.0" encoding="UTF-8"?>
<svg xmlns="http://www.w3.org/2000/svg" viewBox="0 0 4000 4000">
  <defs>
    <style>
      .uuid-ea204a90-8625-434c-80f0-baa5524e131e {
        fill: #edf0f4;
      }

      .uuid-ea204a90-8625-434c-80f0-baa5524e131e, .uuid-5925dc9b-98d1-40be-b37b-c4a4579dcf88, .uuid-511918ae-8d1b-4908-9499-1c5b1173714a, .uuid-70b49da3-6429-4c8b-826d-12c7fef3a97f, .uuid-987573c7-b8e8-4f35-a634-eb177caaf101, .uuid-0bb7cd3b-c35e-47ee-ac85-78b9a70e4a1d {
        stroke-width: 0px;
      }

      .uuid-5925dc9b-98d1-40be-b37b-c4a4579dcf88 {
        fill: #efc100;
      }

      .uuid-511918ae-8d1b-4908-9499-1c5b1173714a {
        fill: #fff1e1;
      }

      .uuid-70b49da3-6429-4c8b-826d-12c7fef3a97f {
        fill: #fff;
      }

      .uuid-987573c7-b8e8-4f35-a634-eb177caaf101 {
        fill: #c9ccd5;
      }

      .uuid-0bb7cd3b-c35e-47ee-ac85-78b9a70e4a1d {
        fill: #ffd527;
      }
    </style>
  </defs>
  <g id="uuid-4e9b3d4f-45cd-4a57-9b06-914d65adeb40" data-name="background">
    <rect class="uuid-70b49da3-6429-4c8b-826d-12c7fef3a97f" width="4000" height="4000"/>
  </g>
  <g id="uuid-40c8cf32-3db9-4253-b902-4518d5b38900" data-name="object">
    <g>
      <path class="uuid-0bb7cd3b-c35e-47ee-ac85-78b9a70e4a1d" d="m3223.41,1125.9l-126.53-19.57,16-103.46c12.73-82.3-48.74-160.12-137.29-173.81l-1730.54-267.59c-88.55-13.69-170.65,41.93-183.37,124.23l-357.41,2311.42c-12.73,82.3,48.74,160.12,137.29,173.81l1730.54,267.59c88.55,13.69,170.65-41.93,183.37-124.23l238.16-1540.17,126.53,19.57c47.15,7.29,90.87-22.33,97.64-66.15l78.72-509.09c6.78-43.82-25.95-85.26-73.1-92.55Z"/>
      <polygon class="uuid-5925dc9b-98d1-40be-b37b-c4a4579dcf88" points="2685.57 1950.96 2869.42 1181.52 2747.96 1152.5 2757.3 1065.67 2652.36 1054.39 2652.36 980.02 2579.91 980.02 2567.69 867.78 1872.83 943.4 1416.97 834.48 1396.67 919.43 1272.51 906.08 1264.57 980.02 1159.02 980.02 1159.02 1229.72 1123.23 1274.26 1125.19 1274.05 1124.32 1275.12 1159.02 1593.97 1159.02 1914.04 941.97 2822.48 1063.42 2851.5 1054.09 2938.33 1159.02 2949.61 1159.02 3023.98 1314.65 3023.98 1318.54 3059.75 1647.24 3023.98 1785.29 3023.98 2394.41 3169.52 2414.71 3084.57 2538.87 3097.92 2546.81 3023.98 2652.36 3023.98 2652.36 2914.59 2788.83 2899.74 2685.57 1950.96"/>
      <rect class="uuid-987573c7-b8e8-4f35-a634-eb177caaf101" x="1182.76" y="972.29" width="1493.33" height="2043.96"/>
      <rect class="uuid-ea204a90-8625-434c-80f0-baa5524e131e" x="1182.76" y="972.29" width="1493.33" height="2043.96" transform="translate(224.17 -194.77) rotate(6.13)"/>
      <rect class="uuid-511918ae-8d1b-4908-9499-1c5b1173714a" x="1182.76" y="972.29" width="1493.33" height="2043.96" transform="translate(516.28 -393.79) rotate(13.44)"/>
      <g>
        <polygon class="uuid-70b49da3-6429-4c8b-826d-12c7fef3a97f" points="1368.48 993.15 1148.06 1267.4 1342.28 3052.02 2812.56 2892.01 2591.43 860.05 1368.48 993.15"/>
        <path class="uuid-511918ae-8d1b-4908-9499-1c5b1173714a" d="m1386.59,1168.67l-19.19-176.41-220.43,274.27,176.41-19.21c39.18-4.27,67.48-39.48,63.22-78.66Z"/>
        <g>
          <rect class="uuid-987573c7-b8e8-4f35-a634-eb177caaf101" x="1584.44" y="1267.42" width="676.51" height="44.4" transform="translate(-128.24 215.59) rotate(-6.21)"/>
          <rect class="uuid-987573c7-b8e8-4f35-a634-eb177caaf101" x="1676.04" y="1767.98" width="807.44" height="42.79" transform="translate(-181.38 235.51) rotate(-6.21)"/>
          <rect class="uuid-987573c7-b8e8-4f35-a634-eb177caaf101" x="1666.4" y="1689.68" width="429.7" height="42.79" transform="translate(-174.08 213.58) rotate(-6.21)"/>
          <rect class="uuid-987573c7-b8e8-4f35-a634-eb177caaf101" x="1719.77" y="2169.81" width="807.44" height="42.79" transform="translate(-224.6 242.6) rotate(-6.21)"/>
          <rect class="uuid-987573c7-b8e8-4f35-a634-eb177caaf101" x="1710.13" y="2091.5" width="429.7" height="42.79" transform="translate(-217.3 220.67) rotate(-6.21)"/>
          <rect class="uuid-987573c7-b8e8-4f35-a634-eb177caaf101" x="1764.57" y="2581.46" width="807.44" height="42.79" transform="translate(-268.88 249.86) rotate(-6.21)"/>
          <rect class="uuid-987573c7-b8e8-4f35-a634-eb177caaf101" x="1754.93" y="2503.15" width="429.7" height="42.79" transform="translate(-261.57 227.93) rotate(-6.21)"/>
          <path class="uuid-987573c7-b8e8-4f35-a634-eb177caaf101" d="m1605.8,1864.99l-165.71,18.03c-10,1.09-18.99-6.14-20.08-16.14l-32.03-294.29c-1.09-10,6.14-18.99,16.14-20.08l165.71-18.03c10-1.09,18.99,6.14,20.08,16.14l32.03,294.29c1.09,10-6.14,18.99-16.14,20.08Z"/>
          <path class="uuid-987573c7-b8e8-4f35-a634-eb177caaf101" d="m1647.64,2270.74l-161.14,17.54c-11.26,1.23-21.39-6.91-22.61-18.18l-31.53-289.72c-1.23-11.26,6.91-21.39,18.18-22.61l161.14-17.54c11.26-1.23,21.39,6.91,22.61,18.18l31.53,289.72c1.23,11.26-6.91,21.39-18.18,22.61Z"/>
          <path class="uuid-987573c7-b8e8-4f35-a634-eb177caaf101" d="m1691.77,2676.23l-161.14,17.54c-11.26,1.23-21.39-6.91-22.61-18.18l-31.53-289.72c-1.23-11.26,6.91-21.39,18.18-22.61l161.14-17.54c11.26-1.23,21.39,6.91,22.61,18.18l31.53,289.72c1.23,11.26-6.91,21.39-18.18,22.61Z"/>
        </g>
      </g>
    </g>
  </g>
</svg>